# xmcd CD database file
#
# Track frame offsets:
#	183
#	24970
#	53008
#	72183
#	92258
#	114983
#	138108
#	164658
#	198858
#	216858
#	236583
#
# Disc length: 3336 seconds
#
# Revision: 6
# Processed by: cddbd v1.5.2PL0 Copyright (c) Steve Scherf et al.
# Submitted via: CDex 1.51
#
DISCID=880d060b
DTITLE=Trio Pim Jacobs +++ - Ode aan Benny Goodman
DYEAR=1987
DGENRE=Jazz
TTITLE0=Seven come eleven
TTITLE1=Love is just around the corner
TTITLE2=Blues in the closet
TTITLE3=Memories of you - Star dust
TTITLE4=Slipped disc
TTITLE5=Making whoopie
TTITLE6=Airmail special
TTITLE7=Between the devil and the deep blue sea
TTITLE8=Liza
TTITLE9=I can't get started - Body and soul
TTITLE10=Avalon
EXTD=YEAR: 1987
EXTT0=
EXTT1=
EXTT2=
EXTT3=
EXTT4=
EXTT5=
EXTT6=
EXTT7=
EXTT8=
EXTT9=
EXTT10=
PLAYORDER=
